# xmcd
#
# Track frame offsets:
#	150
#	15839
#	30576
#	45843
#	59688
#	77653
#	91620
#	107559
#	122928
#	139520
#	155368
#
# Disc length: 2284 seconds
#
# Revision: 0
# Processed by: cddbd v1.5.2PL0 Copyright (c) Steve Scherf et al.
# Submitted via: EZCDAudioConverter 5.0.2.1
#
DISCID=7508ea0b
DTITLE=Brooks Williams - My Turn Now
DYEAR=2016
DGENRE=Blues
TTITLE0=Crazy Dance
TTITLE1=My Turn Now
TTITLE2=Nine Days' Wonder
TTITLE3=Darkness
TTITLE4=Year Began
TTITLE5=Your Mind Is On Vacation
TTITLE6=Joker's Wild
TTITLE7=Rosalyn
TTITLE8=Hesitation Blues
TTITLE9=Nobody Wins
TTITLE10=Sitting On Top Of The World
EXTD=
EXTT0=
EXTT1=
EXTT2=
EXTT3=
EXTT4=
EXTT5=
EXTT6=
EXTT7=
EXTT8=
EXTT9=
EXTT10=
PLAYORDER=
